<svg width="300px" height="147px" viewBox="0 0 300 147" version="1.1" xmlns="http://www.w3.org/2000/svg" xmlns:xlink="http://www.w3.org/1999/xlink">
    <defs>
        <linearGradient x1="50%" y1="119.642857%" x2="50%" y2="-6.38198758%" id="linearGradient-1">
            <stop stopColor="#868686" stopOpacity="0" offset="0%"></stop>
            <stop stopColor="#848484" stopOpacity="0.07" offset="15%"></stop>
            <stop stopColor="#80807F" stopOpacity="0.27" offset="40%"></stop>
            <stop stopColor="#787878" stopOpacity="0.6" offset="69%"></stop>
            <stop stopColor="#6F6F6E" offset="100%"></stop>
        </linearGradient>
        <linearGradient x1="50%" y1="119.642857%" x2="50%" y2="-6.38198758%" id="linearGradient-2">
            <stop stopColor="#868686" stopOpacity="0" offset="0%"></stop>
            <stop stopColor="#848484" stopOpacity="0.07" offset="15%"></stop>
            <stop stopColor="#80807F" stopOpacity="0.27" offset="40%"></stop>
            <stop stopColor="#787878" stopOpacity="0.6" offset="69%"></stop>
            <stop stopColor="#6F6F6E" offset="100%"></stop>
        </linearGradient>
        <linearGradient x1="50.0003059%" y1="115.90609%" x2="50.0003059%" y2="-3.1841526%" id="linearGradient-3">
            <stop stopColor="#868686" stopOpacity="0" offset="0%"></stop>
            <stop stopColor="#848484" stopOpacity="0.07" offset="15%"></stop>
            <stop stopColor="#80807F" stopOpacity="0.27" offset="40%"></stop>
            <stop stopColor="#787878" stopOpacity="0.6" offset="69%"></stop>
            <stop stopColor="#6F6F6E" offset="100%"></stop>
        </linearGradient>
        <linearGradient x1="50.0067105%" y1="119.624282%" x2="50.0067105%" y2="-6.38099674%" id="linearGradient-4">
            <stop stopColor="#868686" stopOpacity="0" offset="0%"></stop>
            <stop stopColor="#848484" stopOpacity="0.07" offset="15%"></stop>
            <stop stopColor="#80807F" stopOpacity="0.27" offset="40%"></stop>
            <stop stopColor="#787878" stopOpacity="0.6" offset="69%"></stop>
            <stop stopColor="#6F6F6E" offset="100%"></stop>
        </linearGradient>
        <linearGradient x1="411.654321%" y1="-5.89737464%" x2="31.3950617%" y2="52.998472%" id="linearGradient-5">
            <stop stopColor="#E4003A" offset="10%"></stop>
            <stop stopColor="#DA0045" offset="12%"></stop>
            <stop stopColor="#BC0063" offset="19%"></stop>
            <stop stopColor="#B1006E" offset="23%"></stop>
            <stop stopColor="#A8046E" offset="25%"></stop>
            <stop stopColor="#8C1070" offset="30%"></stop>
            <stop stopColor="#751A71" offset="37%"></stop>
            <stop stopColor="#652172" offset="44%"></stop>
            <stop stopColor="#5C2573" offset="51%"></stop>
            <stop stopColor="#592673" offset="62%"></stop>
            <stop stopColor="#572A75" offset="69%"></stop>
            <stop stopColor="#50357D" offset="75%"></stop>
            <stop stopColor="#444889" offset="81%"></stop>
            <stop stopColor="#33639B" offset="87%"></stop>
            <stop stopColor="#1D85B2" offset="94%"></stop>
            <stop stopColor="#03AECD" offset="99%"></stop>
            <stop stopColor="#00B3D0" offset="100%"></stop>
        </linearGradient>
        <linearGradient x1="301.718289%" y1="9.72795528%" x2="-82.3310133%" y2="69.953018%" id="linearGradient-6">
            <stop stopColor="#E4003A" offset="10%"></stop>
            <stop stopColor="#DA0045" offset="12%"></stop>
            <stop stopColor="#BC0063" offset="19%"></stop>
            <stop stopColor="#B1006E" offset="23%"></stop>
            <stop stopColor="#A8046E" offset="25%"></stop>
            <stop stopColor="#8C1070" offset="30%"></stop>
            <stop stopColor="#751A71" offset="37%"></stop>
            <stop stopColor="#652172" offset="44%"></stop>
            <stop stopColor="#5C2573" offset="51%"></stop>
            <stop stopColor="#592673" offset="62%"></stop>
            <stop stopColor="#572A75" offset="69%"></stop>
            <stop stopColor="#50357D" offset="75%"></stop>
            <stop stopColor="#444889" offset="81%"></stop>
            <stop stopColor="#33639B" offset="87%"></stop>
            <stop stopColor="#1D85B2" offset="94%"></stop>
            <stop stopColor="#03AECD" offset="99%"></stop>
            <stop stopColor="#00B3D0" offset="100%"></stop>
        </linearGradient>
        <linearGradient x1="161.544109%" y1="35.1159969%" x2="-163.783102%" y2="79.4860967%" id="linearGradient-7">
            <stop stopColor="#E4003A" offset="10%"></stop>
            <stop stopColor="#DA0045" offset="12%"></stop>
            <stop stopColor="#BC0063" offset="19%"></stop>
            <stop stopColor="#B1006E" offset="23%"></stop>
            <stop stopColor="#A8046E" offset="25%"></stop>
            <stop stopColor="#8C1070" offset="30%"></stop>
            <stop stopColor="#751A71" offset="37%"></stop>
            <stop stopColor="#652172" offset="44%"></stop>
            <stop stopColor="#5C2573" offset="51%"></stop>
            <stop stopColor="#592673" offset="62%"></stop>
            <stop stopColor="#572A75" offset="69%"></stop>
            <stop stopColor="#50357D" offset="75%"></stop>
            <stop stopColor="#444889" offset="81%"></stop>
            <stop stopColor="#33639B" offset="87%"></stop>
            <stop stopColor="#1D85B2" offset="94%"></stop>
            <stop stopColor="#03AECD" offset="99%"></stop>
            <stop stopColor="#00B3D0" offset="100%"></stop>
        </linearGradient>
        <linearGradient x1="65.8305254%" y1="48.0668838%" x2="-318.569824%" y2="108.220585%" id="linearGradient-8">
            <stop stopColor="#E4003A" offset="10%"></stop>
            <stop stopColor="#DA0045" offset="12%"></stop>
            <stop stopColor="#BC0063" offset="19%"></stop>
            <stop stopColor="#B1006E" offset="23%"></stop>
            <stop stopColor="#A8046E" offset="25%"></stop>
            <stop stopColor="#8C1070" offset="30%"></stop>
            <stop stopColor="#751A71" offset="37%"></stop>
            <stop stopColor="#652172" offset="44%"></stop>
            <stop stopColor="#5C2573" offset="51%"></stop>
            <stop stopColor="#592673" offset="62%"></stop>
            <stop stopColor="#572A75" offset="69%"></stop>
            <stop stopColor="#50357D" offset="75%"></stop>
            <stop stopColor="#444889" offset="81%"></stop>
            <stop stopColor="#33639B" offset="87%"></stop>
            <stop stopColor="#1D85B2" offset="94%"></stop>
            <stop stopColor="#03AECD" offset="99%"></stop>
            <stop stopColor="#00B3D0" offset="100%"></stop>
        </linearGradient>
    </defs>
    <g id="89c3" stroke="none" strokeWidth="1" fill="none" fillRule="evenodd">
        <path d="M82.3445946,106.817568 C82.3445946,114.033784 75.9054054,119.317568 65.3783784,119.317568 L26.3040541,119.317568 L26.3040541,75.8040541 L64.1418919,75.8040541 C69.222973,75.8040541 73.9864865,77.7837838 76.9797297,80.972973 C78.9067142,82.9533008 79.9937089,85.6017914 80.0135135,88.3648649 C80.0135135,91.972973 78.5878378,94.5540541 75.4324324,96.722973 C79.8716216,99.1216216 82.3445946,102.310811 82.3445946,106.817568 Z M68.972973,88.3648649 C68.972973,85.8986486 66.9932432,84.1554054 64.0810811,84.1554054 L37.2027027,84.1554054 L37.2027027,92.75 L64.5135135,92.75 C65.6888077,92.7680848 66.8223046,92.3142941 67.6604164,91.4901509 C68.4985282,90.6660076 68.9713037,89.540297 68.972973,88.3648649 L68.972973,88.3648649 Z M71.2635135,106.277027 C71.2635135,103.209459 68.7837838,101.108108 64.6959459,101.108108 L37.2027027,101.108108 L37.2027027,110.966216 L64.5135135,110.966216 C68.9189189,110.966216 71.2635135,109.222973 71.2635135,106.277027 Z" id="Shape" fill="url(#linearGradient-1)" fillRule="nonzero"></path>
        <path d="M147.675676,90.0472973 C147.675676,99.0608108 141.72973,103.932432 130.337838,103.932432 L104.945946,103.932432 L104.945946,119.317568 L94.0405405,119.317568 L94.0405405,75.8040541 L130.763514,75.8040541 C140.986486,75.8040541 147.675676,81.5743243 147.675676,90.0472973 Z M136.898649,89.9864865 C136.898649,86.2635135 134.297297,84.1554054 129.527027,84.1554054 L104.945946,84.1554054 L104.945946,95.5743243 L129.594595,95.5743243 C134.168919,95.5743243 136.898649,93.4121622 136.898649,89.9864865 Z" id="Shape" fill="url(#linearGradient-2)" fillRule="nonzero"></path>
        <path d="M201.668919,90.7702703 C196.443534,85.645872 189.392577,82.8133326 182.074324,82.8986486 C170.925676,82.8986486 163.371622,89.027027 163.371622,97.4459459 C163.371622,106.040541 171.047297,112.114865 182.966216,112.114865 C190.52027,112.114865 196.527027,109.533784 201.790541,104.006757 L211.02027,108.817568 C203.587838,117.054054 195.168919,120.540541 183.459459,120.540541 C175.533784,120.540541 168.844595,118.797297 162.405405,114.952703 C156.274423,111.260042 152.535699,104.616558 152.560811,97.4594595 C152.523439,91.2673863 155.38937,85.4154842 160.304054,81.6486486 C165.939189,77.1418919 173.986486,74.4932432 182.966216,74.4932432 C195.040541,74.4932432 204.331081,78.6418919 211.574324,87.3310811 L201.668919,90.7702703 Z" id="Path" fill="url(#linearGradient-3)" fillRule="nonzero"></path>
        <polygon id="Path" fill="url(#linearGradient-4)" fillRule="nonzero" points="222.716216 119.324324 222.716216 75.8040541 271.331081 75.8040541 271.331081 84.1554054 233.614865 84.1554054 233.614865 93.0540541 259.810811 93.0540541 259.810811 101.412162 233.614865 101.412162 233.614865 110.966216 273.060811 110.966216 273.060811 119.324324"></polygon>
        <path d="M36.4121622,60.9864865 C36.4121622,56.6554054 41.7162162,54.9054054 52.527027,54.9054054 C63.1351351,54.9054054 68.3040541,56.5878378 68.3040541,60.9864865 C68.3040541,64.472973 63,66.6756757 52.4594595,66.9932432 C41.7837838,66.6689189 36.4121622,64.472973 36.4121622,60.9864865 M39.4324324,42.4391892 C39.4324324,38.7567568 43.7297297,36.8851351 52.1891892,36.8851351 C60.9121622,36.8851351 65.2837838,38.8243243 65.2837838,42.4391892 C65.2837838,45.9324324 61.722973,47.4189189 54.4054054,47.4189189 L50.5135135,47.4189189 C43.0810811,47.4189189 39.4324324,45.9932432 39.4324324,42.4391892 M28.3783784,41.5405405 C28.3783784,45.0945946 30.4054054,48 34.3513514,50.527027 C28.222973,53.1081081 25,57.0472973 25,61.5675676 C25,70.2432432 34.7364865,75.9797297 52.2635135,75.9797297 C69.7905405,75.9797297 79.7297297,70.2432432 79.7297297,61.5675676 C79.7297297,57.0472973 76.5067568,53.1013514 70.3986486,50.5202703 C74.4527027,48 76.3716216,45.1148649 76.3716216,41.5337838 C76.3513514,33.1418919 67.9054054,27.9054054 52.3918919,27.9054054 C36.8783784,27.9054054 28.3783784,33.1418919 28.3783784,41.5405405" id="Shape" fill="url(#linearGradient-5)" fillRule="nonzero"></path>
        <path d="M99.8378378,43.2837838 C99.8378378,39.4054054 104.263514,37.0135135 112.72973,37.0135135 C120.25,37.0135135 125.621622,38.9527027 128.844595,42.8918919 C125.155405,47.222973 119.445946,49.3513514 111.722973,49.3513514 C103.864865,49.3513514 99.8378378,47.2837838 99.8378378,43.2702703 M88.6216216,43.9459459 C88.6216216,52.277027 97.75,58.3581081 112.722973,58.3581081 C119.972973,58.3581081 126.351351,56.4189189 131.317568,52.8648649 C130.310811,61.8445946 123.527027,67.2094595 113.324324,67.2094595 C107.013514,67.2094595 101.506757,65.1824324 97.4121622,61.4594595 L90.3716216,67.1283784 C96.6148649,73.1418919 104.337838,76.0472973 113.601351,76.0472973 C123.540541,76.0472973 132.135135,72.3040541 137.635135,65.8378378 C141.001089,61.9191552 142.836882,56.9157176 142.804054,51.75 C142.804054,37.7905405 131.256757,27.8445946 113.391892,27.8445946 C97.8175676,27.8445946 88.6148649,34.2364865 88.6148649,43.9324324" id="Shape" fill="url(#linearGradient-6)" fillRule="nonzero"></path>
        <path d="M159.283784,34.6891892 C153.777027,39.0878378 150.891892,44.9594595 150.891892,51.6824324 C150.876999,59.3967101 154.93575,66.5457634 161.567568,70.4864865 C168.554054,74.6216216 175.804054,76.4932432 184.398649,76.4932432 C197.087838,76.4932432 206.216216,72.75 214.277027,63.8918919 L204.27027,58.7567568 C198.567568,64.7027027 192.054054,67.4797297 183.858108,67.4797297 C170.966216,67.4797297 162.641892,60.9527027 162.641892,51.7162162 C162.641892,42.6689189 170.831081,36.0810811 182.912162,36.0810811 C190.824246,35.9934506 198.450285,39.0365798 204.128378,44.5472973 L214.864865,40.8310811 C207.02027,31.4594595 196.952703,27 183.858108,27 C174.121622,27 165.391892,29.8445946 159.283784,34.6891892" id="Path" fill="url(#linearGradient-7)" fillRule="nonzero"></path>
        <path d="M225.614865,34.1756757 L230.175676,41.1554054 C235.716423,38.3667749 241.837665,36.9267551 248.040541,36.9527027 C256.432432,36.9527027 261.202703,39.0878378 261.202703,42.1216216 C261.202703,45.5 257.641892,47.0337838 250.391892,47.0337838 L240.189189,47.0337838 L240.189189,55.8851351 L248.648649,55.8851351 C258.52027,55.8851351 263.418919,56.9189189 263.418919,60.9189189 C263.418919,64.9189189 258.648649,67.1283784 249.324324,67.1283784 C240.189189,67.1283784 233.337838,64.8378378 227.5,59.4324324 L220.581081,65.6351351 C228.905405,72.8040541 237.77027,75.9054054 249.047297,75.9054054 C265.635135,75.9054054 274.722973,70.4121622 274.722973,61.3716216 C274.722973,56.527027 271.966216,53.1013514 266.391892,50.9054054 L266.391892,50.7162162 C270.560811,48.2567568 272.304054,45.4189189 272.304054,41.1554054 C272.304054,33.3378378 263.777027,27.8445946 249.331081,27.8445946 C240.547297,27.8445946 232.952703,29.7162162 225.628378,34.1756757" id="Path" fill="url(#linearGradient-8)" fillRule="nonzero"></path>
    </g>
</svg>
