<svg width="300px" height="147px" viewBox="0 0 300 147" version="1.1" xmlns="http://www.w3.org/2000/svg" xmlns:xlink="http://www.w3.org/1999/xlink">
    <g id="Airbus" stroke="none" strokeWidth="1" fill="none" fillRule="evenodd">
        <path d="M139.936875,65.775 C139.936875,57.34875 134.40875,50.944375 123.01625,50.944375 L100.09625,50.944375 L100.09625,95.23375 L110.8825,95.23375 L110.8825,60.51625 L123.08375,60.51625 C127.600625,60.51625 129.2175,63.07875 129.2175,66.044375 C129.2175,69.078125 127.5325,71.5725 123.015625,71.5725 L112.566875,71.5725 L127.3975,95.23375 L139.666875,95.23375 C139.666875,95.23375 129.554375,79.324375 129.6225,79.324375 C135.8925,77.841875 139.936875,73.46 139.936875,65.775" id="Path-Copy" fill="#00205B" fillRule="nonzero"></path>
        <rect id="Rectangle-Copy" fill="#00205B" fillRule="nonzero" x="82.03" y="50.944375" width="10.78625" height="44.29"></rect>
        <polygon id="Path-Copy-2" fill="#00205B" fillRule="nonzero" points="47.583125 50.944375 25 95.23375 37.13375 95.23375 40.791875 87.81875 58.975 87.81875 54.45875 78.515625 45.381875 78.515625 52.09875 64.89875 52.234375 64.89875 67.334375 95.23375 79.738125 95.23375 57.155 50.944375"></polygon>
        <path d="M179.3075,72.246875 C182.74625,70.35875 184.56625,67.325625 184.56625,62.87625 C184.56625,55.730625 179.240625,50.944375 170.275,50.944375 L145.06125,50.944375 L145.06125,95.23375 L171.28625,95.23375 C180.45375,95.23375 186.45375,90.3125 186.45375,82.83 C186.453125,77.64 183.555,73.73 179.3075,72.246875 L179.3075,72.246875 Z M155.84875,60.314375 L170.275,60.314375 C172.4325,60.314375 174.1175,61.999375 174.1175,64.224375 C174.1175,66.449375 172.4325,68.134375 170.206875,68.134375 L155.848125,68.134375 L155.848125,60.314375 L155.84875,60.314375 Z M170.54375,85.930625 L155.848125,85.930625 L155.848125,76.8975 L170.54375,76.8975 C173.173125,76.8975 175.195625,78.785625 175.195625,81.346875 C175.19625,83.975625 173.173125,85.930625 170.54375,85.930625 L170.54375,85.930625 Z" id="Shape-Copy" fill="#00205B" fillRule="nonzero"></path>
        <path d="M220.49625,75.684375 C220.49625,82.406875 217.395,86.133125 211.26125,86.133125 C205.194375,86.133125 202.093125,82.406875 202.093125,75.684375 L202.093125,50.944375 L191.038125,50.944375 L191.038125,74.875625 C191.038125,88.560625 198.25125,96.178125 211.26125,96.178125 C224.27125,96.178125 231.551875,88.560625 231.551875,74.875625 L231.551875,50.944375 L220.49625,50.944375 L220.49625,75.684375 Z" id="Path-Copy-3" fill="#00205B" fillRule="nonzero"></path>
        <path d="M260.33625,68.53875 C250.096875,66.045625 247.865625,65.8075 247.865625,62.875625 C247.865625,60.6075 250.426875,59.505 254.74125,59.505 C260.47125,59.505 266.573125,60.9425 270.04375,63.078125 L273.481875,54.045 C269.033125,51.685625 262.49375,50 254.87625,50 C243.483125,50 237.07875,55.663125 237.07875,63.28 C237.07875,71.47625 241.8625,74.80625 252.853125,77.166875 C261.409375,79.053125 263.23375,80.23 263.23375,82.626875 C263.23375,85.230625 260.875,86.4025 256.22375,86.4025 C249.4825,86.4025 243.38125,84.765 238.494375,82.088125 L235.19125,91.525625 C240.516875,94.356875 248.47125,96.1775 256.493125,96.1775 C267.68375,96.1775 274.356875,90.98625 274.356875,82.29 C274.358125,75.313125 269.844375,70.83125 260.33625,68.53875" id="Path-Copy-4" stroke="#979797" fill="#00205B" fillRule="nonzero"></path>
    </g>
</svg>
