<svg width="300px" height="147px" viewBox="0 0 300 147" version="1.1" xmlns="http://www.w3.org/2000/svg" xmlns:xlink="http://www.w3.org/1999/xlink">
    <defs>
        <linearGradient x1="50%" y1="-0.000295578151%" x2="50%" y2="100.001182%" id="linearGradient-1">
            <stop stopColor="#FF1E27" offset="33.52%"></stop>
            <stop stopColor="#E81B23" offset="69.15%"></stop>
            <stop stopColor="#A61319" offset="78.41%"></stop>
            <stop stopColor="#9D1218" offset="87.19%"></stop>
            <stop stopColor="#931116" offset="95.51%"></stop>
            <stop stopColor="#800F14" offset="100%"></stop>
        </linearGradient>
    </defs>
    <g id="Air-France" stroke="none" strokeWidth="1" fill="none" fillRule="evenodd">
        <path d="M261.52375,63.185 L250.30375,79.419375 C248.82625,81.554375 246.42875,83.61125 243.535,83.8325 L243.535,84.330625 L256.014375,84.330625 C259.326875,84.330625 261.743125,82.17375 263.38,79.798125 L274.90125,63.185625 L261.52375,63.185625 L261.52375,63.185 Z" id="Path" fill="#ED1C24" fillRule="nonzero"></path>
        <path d="M261.52375,63.185 L250.30375,79.416875 C248.82625,81.554375 246.42875,83.61125 243.535,83.831875 L243.535,84.33 L256.014375,84.33 C259.326875,84.33 261.743125,82.173125 263.38,79.7975 L274.90125,63.185 L261.52375,63.185 L261.52375,63.185 Z" id="Path" fill="url(#linearGradient-1)" fillRule="nonzero"></path>
        <path d="M54.87875,84.33 L54.87875,64.96875 L60.530625,64.96875 L60.530625,84.33 L54.87875,84.33 L54.87875,84.33 Z M185.1675,84.33 L171.593125,72.833125 L171.593125,84.33 L166.821875,84.33 L166.821875,64.96875 L170.875,64.96875 L184.269375,76.285625 L184.269375,64.96875 L189.040625,64.96875 L189.040625,84.33 L185.1675,84.33 L185.1675,84.33 Z M214.689375,71.215625 C212.135,69.95875 209.260625,68.940625 205.448125,68.940625 C200.89625,68.940625 197.501875,71.295 197.501875,74.56875 C197.501875,77.925 200.955625,80.298125 205.406875,80.298125 C209.08,80.298125 211.995625,79.359375 214.87,77.703125 L214.87,82.494375 C212.3325,83.753125 208.96,84.689375 205.16875,84.689375 C197.4225,84.689375 191.334375,80.736875 191.334375,74.569375 C191.334375,68.500625 197.543125,64.608125 205.149375,64.608125 C208.740625,64.608125 211.995625,65.286875 214.689375,66.385 L214.689375,71.215625 L214.689375,71.215625 Z M91.96875,84.33 L91.96875,64.96875 L110.85125,64.96875 L110.85125,69.11875 L97.615625,69.11875 L97.615625,73.93125 L110.5525,73.93125 L110.5525,78.08375 L97.615625,78.08375 L97.615625,84.33 L91.96875,84.33 L91.96875,84.33 Z M218.103125,84.33 L218.103125,64.96875 L237.705,64.96875 L237.705,69.11875 L223.7525,69.11875 L223.7525,72.474375 L237.48375,72.474375 L237.48375,76.625 L223.7525,76.625 L223.7525,80.1775 L237.645,80.1775 L237.645,84.330625 L218.103125,84.330625 L218.103125,84.33 Z M130.4725,77.065625 L138.279375,84.33 L132.249375,84.33 C130.913125,84.33 130.034375,83.91125 129.334375,83.2325 L124.02625,78.08375 C123.925,77.9825 123.76625,77.925 123.566875,77.925 L119.95375,77.925 L119.95375,84.33 L114.30375,84.33 L114.30375,64.96875 L126.5425,64.96875 C132.8875,64.96875 135.565,67.82125 135.565,70.9775 C135.56375,74.648125 132.29,76.405 130.4725,77.065625 L130.4725,77.065625 L130.4725,77.065625 Z M125.96125,73.870625 C128.1975,73.870625 129.27625,72.731875 129.27625,71.45625 C129.27625,70.178125 128.318125,69.11875 125.96125,69.11875 L119.953125,69.11875 L119.953125,73.870625 L125.96125,73.870625 L125.96125,73.870625 Z M81.98875,77.065625 L89.7925,84.33 L83.765,84.33 C82.42625,84.33 81.548125,83.91125 80.85,83.2325 L75.539375,78.08375 C75.44125,77.9825 75.279375,77.925 75.08,77.925 L71.469375,77.925 L71.469375,84.33 L65.8175,84.33 L65.8175,64.96875 L78.055625,64.96875 C84.403125,64.96875 87.078125,67.82125 87.078125,70.9775 C87.0775,74.648125 83.80375,76.405 81.98875,77.065625 L81.98875,77.065625 L81.98875,77.065625 Z M77.4775,73.870625 C79.71125,73.870625 80.79,72.731875 80.79,71.45625 C80.79,70.178125 79.831875,69.11875 77.4775,69.11875 L71.469375,69.11875 L71.469375,73.870625 L77.4775,73.870625 L77.4775,73.870625 Z M46.039375,84.33 L43.561875,80.079375 L32.744375,80.079375 L30.48875,84.33 L25.09875,84.33 L35.875625,64.988125 L40.78625,64.988125 L53.003125,84.33 L46.039375,84.33 L46.039375,84.33 Z M34.89875,76.0475 L41.205625,76.0475 L37.931875,70.136875 L34.89875,76.0475 L34.89875,76.0475 Z M158.839375,84.33 L156.4225,80.079375 L145.884375,80.079375 L143.708125,84.33 L138.458125,84.33 L148.95875,64.988125 L153.7275,64.988125 L165.605,84.33 L158.839375,84.33 L158.839375,84.33 Z M147.999375,76.0475 L154.1475,76.0475 L150.95375,70.136875 L147.999375,76.0475 L147.999375,76.0475 Z" id="Shape" fill="#002157" fillRule="nonzero"></path>
    </g>
</svg>
