<svg width="300px" height="147px" viewBox="0 0 300 147" version="1.1" xmlns="http://www.w3.org/2000/svg" xmlns:xlink="http://www.w3.org/1999/xlink">
    <defs>
        <linearGradient x1="5%" y1="-1.8%" x2="97.7%" y2="102.4%" id="linearGradient-1">
            <stop stopColor="#001036" offset="0%"></stop>
            <stop stopColor="#002952" offset="7.7%"></stop>
            <stop stopColor="#003B6A" offset="17.2%"></stop>
            <stop stopColor="#004A7F" offset="27.1%"></stop>
            <stop stopColor="#005690" offset="37.3%"></stop>
            <stop stopColor="#005E9D" offset="48%"></stop>
            <stop stopColor="#0064A6" offset="59.4%"></stop>
            <stop stopColor="#0067AB" offset="71.9%"></stop>
            <stop stopColor="#0069AD" offset="87.6%"></stop>
        </linearGradient>
        <linearGradient x1="0.2%" y1="20.1%" x2="96.6%" y2="97.3%" id="linearGradient-2">
            <stop stopColor="#0069AD" offset="20%"></stop>
            <stop stopColor="#0067AA" offset="30.6%"></stop>
            <stop stopColor="#0063A4" offset="41.7%"></stop>
            <stop stopColor="#005B98" offset="53.1%"></stop>
            <stop stopColor="#005088" offset="64.7%"></stop>
            <stop stopColor="#004273" offset="76.4%"></stop>
            <stop stopColor="#002F59" offset="88.2%"></stop>
            <stop stopColor="#001036" offset="100%"></stop>
        </linearGradient>
        <linearGradient x1="4.5%" y1="4.7%" x2="100.8%" y2="81%" id="linearGradient-3">
            <stop stopColor="#0069AD" offset="20%"></stop>
            <stop stopColor="#0067AA" offset="30.4%"></stop>
            <stop stopColor="#0063A3" offset="41.5%"></stop>
            <stop stopColor="#005B98" offset="53%"></stop>
            <stop stopColor="#005087" offset="64.7%"></stop>
            <stop stopColor="#004172" offset="76.6%"></stop>
            <stop stopColor="#002E58" offset="88.5%"></stop>
            <stop stopColor="#001036" offset="100%"></stop>
        </linearGradient>
    </defs>
    <g id="Pierre-Fabre" stroke="none" strokeWidth="1" fill="none" fillRule="evenodd">
        <path d="M149.239726,32 C135.112963,32 123.660959,43.4520041 123.660959,57.5787671 C123.660959,71.7055301 135.112963,83.1575342 149.239726,83.1575342 C163.366489,83.1575342 174.818493,71.7055301 174.818493,57.5787671 C174.860745,50.7819917 172.179416,44.2513544 167.373278,39.4452156 C162.567139,34.6390767 156.036501,31.9577485 149.239726,32 Z" id="Shape" fill="#FFFFFF" fillRule="nonzero"></path>
        <path d="M163.125,71.4640411 C163.144458,69.1630021 162.370417,66.9255397 160.933219,65.1284247 L160.933219,65.1284247 C160.497692,64.3714846 159.915559,63.7090178 159.22089,63.1797945 C159.002316,63.3773085 158.755978,63.5417265 158.489726,63.6678082 C156.053026,65.1703338 153.301217,66.0876034 150.450342,66.3476027 C141.651744,66.7842609 134.14904,60.0400857 133.648973,51.244863 C133.556861,48.8306543 133.971592,46.4239289 134.866438,44.1797945 L134.866438,44.1797945 C134.912429,46.2452189 135.503126,48.2618571 136.578767,50.0256849 L136.578767,50.0256849 C137.103364,51.0019291 137.855105,51.8376536 138.770548,52.4623288 L139.008562,52.4623288 L139.496575,51.9743151 C141.932917,50.4726417 144.684102,49.5559708 147.534247,49.2962329 C156.336085,48.8557037 163.843329,55.6019751 164.342466,64.4006849 C164.434577,66.8148937 164.019846,69.2216191 163.125,71.4657534 L163.125,71.4640411 Z" id="Shape-2" fill="url(#linearGradient-1)" fillRule="nonzero"></path>
        <path d="M149.239726,81.9400685 C135.801356,81.9015077 124.916985,71.0171375 124.878425,57.5787671 C124.888362,48.5296239 129.96926,40.2495192 138.032534,36.1421233 L138.275685,36.1421233 C134.184008,39.9757678 131.961633,45.3992108 132.186644,51.0017123 C132.667901,60.8859677 141.059949,68.5150325 150.945205,68.0547945 C153.854823,67.879562 156.686758,67.0464335 159.22774,65.6181507 L159.22774,65.6181507 L159.715753,66.1061644 C161.729088,68.865746 162.101339,72.495357 160.690068,75.6061644 C157.52226,82.1832192 149.239726,81.9400685 149.239726,81.9400685 Z" id="Shape-3" fill="url(#linearGradient-2)" fillRule="nonzero"></path>
        <path d="M137.789384,40.0376712 C139.738014,34.4349315 145.828767,33.4606164 149.238014,33.2174658 C162.675715,33.2569665 173.559047,44.1410627 173.597603,57.5787671 C173.664387,66.7790336 168.457212,75.2050073 160.19863,79.260274 L160.19863,79.260274 C164.290939,75.4269385 166.513955,70.0034536 166.289384,64.4006849 C165.809028,54.5164493 157.417773,46.8866433 147.532534,47.3458904 C144.622916,47.521123 141.790982,48.3542514 139.25,49.7825342 L139.008562,49.0513699 C137.043157,46.4711683 136.580048,43.047283 137.789384,40.0376712 Z" id="Shape-4" fill="url(#linearGradient-3)" fillRule="nonzero"></path>
        <path d="M29.3835616,112.876712 L25,112.876712 L25,91.4400685 L39.1284247,91.4400685 C41.6588726,91.2962507 44.1765577,91.8911669 46.375,93.1523973 C47.9583535,94.1509345 48.9050434,95.904064 48.8715753,97.7756849 C48.9050434,99.6473059 47.9583535,101.400435 46.375,102.398973 C44.1765577,103.660203 41.6588726,104.255119 39.1284247,104.111301 L29.3835616,104.111301 L29.3835616,112.878425 L29.3835616,112.876712 Z M29.140411,93.869863 L29.140411,101.671233 L37.4246575,101.671233 C39.2691151,101.784245 41.1123302,101.430913 42.7842466,100.643836 C43.8560452,100.095995 44.5209522,98.9842701 44.4965753,97.7808219 C44.4965753,95.0856164 42.3184932,93.8835616 37.4315068,93.8835616 L29.140411,93.869863 Z" id="Shape-5" fill="#000000" fillRule="nonzero"></path>
        <path d="M58.3732877,112.876712 L54.4760274,112.876712 L54.4760274,97.5308219 L58.3732877,97.5308219 L58.3732877,112.875 L58.3732877,112.876712 Z M58.3732877,94.6061644 L54.4760274,94.6061644 L54.4760274,91.4400685 L58.3732877,91.4400685 L58.3732877,94.6044521 L58.3732877,94.6061644 Z" id="Shape-6" fill="#000000" fillRule="nonzero"></path>
        <path d="M74.9383562,113.121575 C72.0111494,113.29095 69.1100606,112.487867 66.6866438,110.837329 C64.886235,109.460375 63.8013976,107.346043 63.7328767,105.080479 C63.7698037,102.771338 64.9286937,100.624772 66.8390411,99.3270548 C69.1528824,97.7622032 71.8995973,96.9632242 74.6917808,97.0428082 C77.792999,96.8288073 80.8433879,97.9150857 83.1113014,100.041096 C84.5630446,101.599426 85.3066079,103.688219 85.1660959,105.813356 L67.8732877,105.813356 C67.8676349,107.1611 68.4672726,108.440201 69.5068493,109.297945 C71.1487033,110.489984 73.157317,111.06699 75.1815068,110.928082 C78.4486301,110.928082 80.5547945,109.917808 81.2722603,108.005137 L84.8510274,108.005137 C83.7773973,111.255137 80.1712329,113.121575 74.9383562,113.121575 Z M74.6917808,99.2363014 C73.0444892,99.1766199 71.4184516,99.6230183 70.0325342,100.515411 C68.9681907,101.217915 68.2672762,102.353535 68.1164384,103.619863 L81.2705479,103.619863 C81.0975321,102.33683 80.3610623,101.197907 79.2619863,100.513699 C77.8989118,99.6442332 76.3081333,99.199602 74.6917808,99.2363014 Z" id="Shape-7" fill="#000000" fillRule="nonzero"></path>
        <path d="M90.0428082,97.2876712 L93.6969178,97.2876712 L93.6969178,100.453767 L93.6969178,100.453767 C95.7414702,97.8768625 98.9465178,96.5031787 102.222603,96.7996575 L102.222603,99.4794521 C96.1318493,99.4794521 93.9400685,101.916096 93.9400685,105.815068 L93.9400685,112.633562 L90.0428082,112.633562 L90.0428082,97.2876712" id="Shape-8" fill="#000000" fillRule="nonzero"></path>
        <path d="M105.876712,97.2876712 L109.530822,97.2876712 L109.530822,100.453767 L109.530822,100.453767 C111.575374,97.8768625 114.780422,96.5031787 118.056507,96.7996575 L118.056507,99.4794521 C111.965753,99.4794521 109.773973,101.916096 109.773973,105.815068 L109.773973,112.633562 L105.876712,112.633562 L105.876712,97.2876712" id="Shape-9" fill="#000000" fillRule="nonzero"></path>
        <path d="M130.724315,113.121575 C127.797108,113.29095 124.89602,112.487867 122.472603,110.837329 C120.672194,109.460375 119.587356,107.346043 119.518836,105.080479 C119.555763,102.771338 120.714653,100.624772 122.625,99.3270548 C124.938841,97.7622032 127.685556,96.9632242 130.47774,97.0428082 C133.578958,96.8288073 136.629347,97.9150857 138.89726,100.041096 C140.349004,101.599426 141.092567,103.688219 140.952055,105.813356 L123.659247,105.813356 C123.553697,106.914135 123.928158,108.006937 124.686644,108.811644 C126.401816,110.347923 128.672303,111.113005 130.967466,110.928082 C134.234589,110.928082 136.340753,109.917808 137.058219,108.005137 L140.636986,108.005137 C139.563356,111.255137 135.957192,113.121575 130.724315,113.121575 Z M130.47774,99.2363014 C128.830448,99.1766199 127.204411,99.6230183 125.818493,100.515411 C124.75415,101.217915 124.053235,102.353535 123.902397,103.619863 L137.056507,103.619863 C136.883491,102.33683 136.147021,101.197907 135.047945,100.513699 C133.684871,99.6442332 132.094092,99.199602 130.47774,99.2363014 Z" id="Shape-10" fill="#000000" fillRule="nonzero"></path>
        <polyline id="Shape-11" fill="#000000" fillRule="nonzero" points="159.958904 91.4400685 181.152397 91.4400685 181.152397 93.8767123 164.344178 93.8767123 164.344178 100.696918 178.965753 100.696918 178.965753 103.133562 164.344178 103.133562 164.344178 112.878425 159.958904 112.878425 159.958904 91.4400685"></polyline>
        <path d="M203.813356,113.121575 C201.741438,113.121575 200.64726,112.27911 200.64726,110.684932 C198.24848,112.430147 195.319495,113.291115 192.357877,113.121575 C190.529447,113.195537 188.70821,112.851786 187.032534,112.116438 C185.674245,111.544769 184.795182,110.209946 184.806507,108.736301 C184.806507,105.325342 188.768836,104.582192 192.601027,103.864726 C193.5,103.758562 194.363014,103.693493 195.19863,103.621575 C198.109589,103.385274 200.39726,103.19863 200.39726,101.672945 C200.39726,99.4589041 197.614726,98.994863 195.280822,98.994863 C191.616438,98.994863 189.648973,99.9777397 189.433219,101.917808 L185.537671,101.917808 C185.658938,100.089644 186.85563,98.5086361 188.582192,97.8955479 C190.717181,97.0780419 192.996624,96.7051269 195.280822,96.7996575 C197.290569,96.7297559 199.297821,96.997158 201.219178,97.5907534 C203.10274,98.2756849 204.05137,99.4006849 204.05137,100.940068 L204.05137,108.988014 C204.05137,110.186644 204.05137,110.700342 205.268836,110.700342 C205.688701,110.716368 206.10642,110.633059 206.488014,110.457192 L206.488014,112.635274 L206.488014,112.635274 L206.488014,112.635274 C205.633008,112.957075 204.726915,113.121819 203.813356,113.121575 L203.813356,113.121575 Z M200.39726,104.837329 C198.808082,105.378665 197.141172,105.656869 195.462329,105.660959 C194.833904,105.705479 194.184932,105.751712 193.578767,105.813356 C191.467466,106.023973 188.955479,106.660959 188.955479,108.493151 C188.955479,110.400685 191.695205,110.684932 193.340753,110.684932 C195.236069,110.783612 197.121305,110.351294 198.784247,109.436644 C199.647659,109.02793 200.252433,108.217929 200.398973,107.273973 L200.39726,104.837329 Z" id="Shape-12" fill="#000000" fillRule="nonzero"></path>
        <path d="M222.563356,113.121575 C219.840164,113.207264 217.171494,112.346149 215.011986,110.684932 L215.011986,112.633562 L211.114726,112.633562 L211.114726,91.4400685 L215.011986,91.4400685 L215.011986,99.4777397 C216.118151,97.9366438 218.77911,97.0428082 222.320205,97.0428082 C225.195894,96.9074213 228.028732,97.7794366 230.330479,99.5085616 C232.02346,100.873402 233.017741,102.923547 233.041269,105.09804 C233.064797,107.272533 232.115108,109.343711 230.452055,110.744863 C228.181301,112.435173 225.389939,113.276156 222.563356,113.121575 L222.563356,113.121575 Z M221.833904,99.234589 C216.625,99.234589 214.768836,102.255137 214.768836,105.082192 C214.705384,106.623841 215.303517,108.119174 216.412671,109.191781 C218.015035,110.460194 220.035646,111.079946 222.07363,110.928082 C224.066634,111.070599 226.032879,110.403249 227.527397,109.077055 C228.614434,107.941695 229.196197,106.415031 229.140411,104.844178 C229.140411,100.967466 225.47089,99.234589 221.833904,99.234589 Z" id="Shape-13" fill="#000000" fillRule="nonzero"></path>
        <path d="M238.398973,97.2876712 L242.053082,97.2876712 L242.053082,100.453767 L242.053082,100.453767 C243.758562,98.0171233 246.438356,96.7996575 250.578767,96.7996575 L250.578767,99.4794521 C244.488014,99.4794521 242.296233,101.916096 242.296233,105.815068 L242.296233,112.633562 L238.398973,112.633562 L238.398973,97.2876712" id="Shape-14" fill="#000000" fillRule="nonzero"></path>
        <path d="M263.246575,113.121575 C260.319369,113.29095 257.41828,112.487867 254.994863,110.837329 C253.194454,109.460375 252.109617,107.346043 252.041096,105.080479 C252.078023,102.771338 253.236913,100.624772 255.14726,99.3270548 C257.461102,97.7622032 260.207816,96.9632242 263,97.0428082 C266.101218,96.8288073 269.151607,97.9150857 271.419521,100.041096 C272.871264,101.599426 273.614827,103.688219 273.474315,105.813356 L256.181507,105.813356 C256.075957,106.914135 256.450418,108.006937 257.208904,108.811644 C258.924076,110.347923 261.194563,111.113005 263.489726,110.928082 C266.756849,110.928082 268.863014,109.917808 269.580479,108.005137 L273.159247,108.005137 C272.085616,111.255137 268.479452,113.121575 263.246575,113.121575 Z M263,99.2363014 C261.352708,99.1766199 259.726671,99.6230183 258.340753,100.515411 C257.27641,101.217915 256.575495,102.353535 256.424658,103.619863 L269.578767,103.619863 C269.405751,102.33683 268.669281,101.197907 267.570205,100.513699 C266.207131,99.6442332 264.616352,99.199602 263,99.2363014 Z" id="Shape-15" fill="#000000" fillRule="nonzero"></path>
    </g>
</svg>
