<svg width="300px" height="147px" viewBox="0 0 300 147" version="1.1" xmlns="http://www.w3.org/2000/svg" xmlns:xlink="http://www.w3.org/1999/xlink">
    <defs>
        <polygon id="path-1" points="0.0774344569 0.0603932584 46.7323889 0.0603932584 46.7323889 62.7340518 0.0774344569 62.7340518"></polygon>
    </defs>
    <g id="Total" stroke="none" strokeWidth="1" fill="none" fillRule="evenodd">
        <path d="M149.919757,86.7023408 C143.533521,86.7023408 140.308801,84.2571161 140.308801,79.3839888 C140.308801,74.4598315 143.533521,71.992603 149.919757,71.992603 C156.291948,71.992603 159.548034,74.4598315 159.548034,79.3839888 C159.548034,84.2571161 156.291948,86.7023408 149.919757,86.7023408 M149.919757,65.6222846 C138.244663,65.6222846 131.555993,70.6377341 131.555993,79.3839888 C131.555993,88.0398876 138.244663,93.0529963 149.919757,93.0529963 C161.581742,93.0529963 168.256367,88.0398876 168.256367,79.3839888 C168.256367,70.6377341 161.581742,65.6222846 149.919757,65.6222846" id="Fill-1" fill="#E10032"></path>
        <path d="M202.497566,66.292603 L170.645037,66.292603 L170.645037,72.1418539 L181.702154,72.1418539 L181.702154,90.3052434 C181.702154,92.0374532 184.347285,92.6633895 186.582772,92.6633895 C188.813577,92.6633895 191.45824,92.0688202 191.45824,90.3052434 L191.45824,72.1418539 L202.497566,72.1418539 L202.497566,66.292603 Z" id="Fill-3" fill="#E10032"></path>
        <path d="M261.331788,86.3407303 C258.630009,86.3407303 256.773268,85.8875468 255.758755,85.0490637 C254.440403,83.9287453 254.288717,82.265824 254.253605,81.0036517 L254.253605,68.1843633 C254.253605,66.4746255 251.744242,65.9175094 249.604728,65.9175094 C247.431976,65.9175094 244.908099,66.4746255 244.908099,68.1558052 L244.908099,80.5729401 C244.908099,85.3088951 246.428699,88.6328652 249.460066,90.4549625 C253.197893,92.6235019 259.997987,92.5453184 266.53544,92.4638577 L274.708661,92.4638577 L274.708661,86.3407303 L261.331788,86.3407303 Z" id="Fill-5" fill="#E10032"></path>
        <path d="M135.601639,58.36147 L96.9845974,58.36147 L96.9845974,64.8113764 L110.301077,64.8113764 L110.301077,84.3970506 C110.301077,89.0243914 114.192931,92.1718633 120.79265,92.7172753 L120.79265,64.8113764 L135.601639,64.8113764 L135.601639,58.36147 Z" id="Fill-7" fill="#E10032"></path>
        <path d="M214.73338,81.3262172 C216.54986,78.5705993 218.745552,75.8838015 221.198268,73.4896067 C223.607444,75.8838015 225.793305,78.5705993 227.616807,81.3262172 L214.73338,81.3262172 Z M224.012875,66.6094569 C223.189841,66.0453184 222.326545,65.9175094 221.198268,65.8828652 C220.042369,65.9175094 219.143024,66.0453184 218.344335,66.6094569 C215.821395,68.4259363 203.624766,80.6852996 201.476358,91.4090824 L201.230103,92.4685393 L209.858848,92.4685393 L210.01662,91.7007491 C210.378511,90.1867041 210.931882,88.5382959 211.690309,86.842603 L230.660815,86.842603 C231.415964,88.5382959 231.988062,90.1867041 232.305946,91.7007491 L232.488998,92.4685393 L241.13132,92.4685393 L240.901919,91.4090824 C238.724017,80.6852996 226.539092,68.4259363 224.012875,66.6094569 L224.012875,66.6094569 Z" id="Fill-9" fill="#E10032"></path>
        <path d="M82.3053839,77.4053371 C82.2655899,77.2700375 82.2140918,77.1431648 82.1644663,77.015824 C77.6831929,82.1277154 66.6855337,85.4395131 56.7904026,84.7035581 C50.9617509,84.2705056 40.1658708,81.2555243 34.7192416,77.9151685 C40.476264,83.4301498 47.2047285,87.6216292 54.8362828,89.8819288 C63.8952715,92.5771536 73.5553839,92.3941011 79.0001404,89.5570225 C82.9973315,86.8636704 83.9027622,82.0490637 82.3053839,77.4053371" id="Fill-11" fill="#F59600"></path>
        <g id="Group-15" transform="translate(32.490637, 42.407772)">
            <mask id="mask-2" fill="white">
                <use xlink:href="#path-1"></use>
            </mask>
            <g id="Clip-14"></g>
            <path d="M37.3578652,2.82448502 C55.1949438,13.3581929 44.5779026,46.5080056 30.3840824,57.1601592 C17.1766854,67.0651217 3.12144195,62.4986423 0.0774344569,53.3619382 C2.73988764,57.3198034 8.01938202,58.7669007 12.7108614,57.1882491 C25.7506554,51.960721 32.4646067,28.3305712 33.3325843,20.125515 C33.9131086,13.0637172 32.9941011,8.31793071 30.5418539,5.33103933 C27.7300562,2.36287453 23.431367,0.921863296 17.1308052,2.89845506 C21.4641386,-0.657724719 30.7417603,-1.08094569 37.3578652,2.82448502" id="Fill-13" fill="#004196" mask="url(#mask-2)"></path>
        </g>
        <path d="M79.8280899,89.0889045 C79.8903558,89.0458333 79.9694757,88.996676 80.0406367,88.954073 C80.0504682,88.9400281 80.0687266,88.9348783 80.0752809,88.9278558 C80.4418539,88.6872191 80.8046816,88.4189607 81.1441011,88.1085674 C81.2981273,87.9676498 81.4605805,87.8150281 81.6155431,87.6511704 C88.555618,80.6080993 90.0284644,61.0214888 72.9240637,51.7429307 C66.8402622,48.4362828 52.6867041,43.8112828 38.5771536,50.9465824 C33.9058052,53.3019195 29.0911985,58.2026685 26.4933521,64.8571629 C28.4104869,61.6975187 31.7208801,59.5551966 38.2470974,58.6347846 C44.7536517,57.8122191 53.7307116,58.8239232 62.5059925,61.9241105 C68.1661049,64.0125936 72.7438202,66.590309 76.3257491,69.5116573 C79.2775281,72.0411517 81.1764045,74.4536049 82.1642322,77.0144663 C82.2143258,77.1432116 82.265824,77.2700843 82.305618,77.4053839 C83.9025281,82.0491105 82.9975655,86.8627809 79.0003745,89.5584738 C78.996161,89.5636236 79.0092697,89.5570693 79.0003745,89.5584738 C79.1895131,89.459691 79.3669476,89.3627809 79.5696629,89.2415262 C79.6024345,89.2265449 79.6244382,89.2134363 79.6558052,89.1928371 C79.7035581,89.158661 79.7667603,89.1221442 79.8280899,89.0889045" id="Fill-16" fill="#E10032"></path>
        <path d="M28.7025749,76.1265918 C29.0307584,76.6481273 29.7713951,77.5352996 30.2517322,78.0933521 C33.6861891,70.0287453 52.4647472,64.7909176 58.0022004,64.857397 C45.5588483,60.8485019 33.3617509,62.7618914 28.4619382,67.013764 C26.6810393,68.9987828 26.1257959,71.976779 28.7025749,76.1265918" id="Fill-18" fill="#F59600"></path>
        <path d="M65.3259831,94.4147472 C55.325515,93.8590356 40.7637172,90.0018258 30.4467697,78.3150281 C30.393867,78.2396536 30.3273876,78.1722378 30.2520131,78.0912453 C29.771676,77.5350655 29.0310393,76.6469569 28.7023876,76.1268258 C26.1256086,71.9774813 26.6808521,68.9990169 28.4617509,67.0177434 L28.4575375,67.0177434 C28.1368446,67.306133 27.740309,67.678324 27.2950843,68.2565075 C24.6485487,71.6708333 24.3325375,77.2129682 26.1321629,83.0889045 C30.0633427,95.8473315 47.2585674,103.523361 61.2131554,101.41662 C70.1298221,100.071114 75.7169007,95.050515 78.0427434,93.0004213 C72.9917135,94.4400281 69.2599719,94.6389981 65.3259831,94.4147472" id="Fill-20" fill="#4B96CD"></path>
    </g>
</svg>
